# xmcd
#
# Track frame offsets: 
#        183
#        12463
#        25393
#        41725
#        55233
#        68870
#        82590
#        95763
#        111805
#        125233
#        138933
#        157023
#        170460
#        184900
#        198843
#
# Disc length: 2844 seconds
#
# Revision: 4
# Processed by: cddbd v1.5.2PL0 Copyright (c) Steve Scherf et al.
# Submitted via: ExactAudioCopyFreeDBPlugin 1.0
#
DISCID=d00b1a0f
DTITLE=Truck Stop - Heiß wie Chili
DYEAR=1994
DGENRE=Country
TTITLE0=Hey-Ho-Hey, Honey
TTITLE1=Ich bin der Skipper
TTITLE2=Heirate doch Jonny Hill
TTITLE3=Alles Gute für dich
TTITLE4=Elvis lebt
TTITLE5=Alter Freund
TTITLE6=Heiß wie Chili
TTITLE7=Darf mein Hund mit in den Himmel
TTITLE8=Alte Adler sehen mehr
TTITLE9=Spiegel lügen nicht
TTITLE10=Legenden
TTITLE11=Gelbe Säcke, blaue Engel
TTITLE12=Keine Frau ...
TTITLE13=Rocky Mountains
TTITLE14=Die rechte Hand des Teufels
EXTD=
EXTT0=
EXTT1=
EXTT2=
EXTT3=
EXTT4=
EXTT5=
EXTT6=
EXTT7=
EXTT8=
EXTT9=
EXTT10=
EXTT11=
EXTT12=
EXTT13=
EXTT14=
PLAYORDER=
